<svg xmlns="http://www.w3.org/2000/svg" xmlns:xlink="http://www.w3.org/1999/xlink" width="1080" zoomAndPan="magnify" viewBox="0 0 810 809.999993" height="1080" preserveAspectRatio="xMidYMid meet" version="1.0"><defs><clipPath id="c06f724f3c"><path d="M 7.867188 15.738281 L 802 15.738281 L 802 809.988281 L 7.867188 809.988281 Z M 7.867188 15.738281 " clip-rule="nonzero"/></clipPath></defs><g clip-path="url(#c06f724f3c)"><path fill="#000000" d="M 728.074219 573.210938 C 726.308594 611.929688 719.832031 632.964844 714.457031 646.933594 C 707.238281 665.457031 698.621094 678.703125 684.648438 692.597656 C 670.835938 706.488281 657.585938 715.082031 639.066406 722.222656 C 625.09375 727.679688 603.980469 734.175781 565.265625 736.019531 C 523.410156 737.863281 511.007812 738.257812 404.871094 738.257812 C 298.832031 738.257812 286.332031 737.863281 244.476562 736.019531 C 205.761719 734.175781 184.746094 727.679688 170.773438 722.222656 C 152.152344 715.082031 139.007812 706.488281 125.113281 692.597656 C 111.121094 678.703125 102.507812 665.457031 95.386719 646.933594 C 90.007812 632.964844 83.433594 611.929688 81.765625 573.210938 C 79.726562 531.355469 79.351562 518.757812 79.351562 412.835938 C 79.351562 306.699219 79.726562 294.199219 81.765625 252.34375 C 83.433594 213.628906 90.007812 192.613281 95.386719 178.523438 C 102.507812 160.019531 111.121094 146.855469 125.113281 132.960938 C 139.007812 119.089844 152.152344 110.472656 170.773438 103.253906 C 184.746094 97.777344 205.761719 91.382812 244.476562 89.539062 C 286.332031 87.691406 298.832031 87.222656 404.871094 87.222656 C 511.007812 87.222656 523.410156 87.691406 565.265625 89.539062 C 603.980469 91.382812 625.09375 97.777344 639.066406 103.253906 C 657.585938 110.472656 670.835938 119.089844 684.648438 132.960938 C 698.621094 146.855469 707.238281 160.019531 714.457031 178.523438 C 719.832031 192.613281 726.308594 213.628906 728.074219 252.34375 C 730.015625 294.199219 730.484375 306.699219 730.484375 412.835938 C 730.484375 518.757812 730.015625 531.355469 728.074219 573.210938 Z M 799.558594 249.085938 C 797.613281 206.78125 790.941406 177.875 781.035156 152.703125 C 770.949219 126.585938 757.429688 104.449219 735.296875 82.316406 C 713.257812 60.28125 691.125 46.761719 665.003906 36.558594 C 639.734375 26.746094 610.929688 19.996094 568.601562 18.148438 C 526.273438 16.109375 512.753906 15.738281 404.871094 15.738281 C 297.085938 15.738281 283.46875 16.109375 241.140625 18.148438 C 198.914062 19.996094 170.125 26.746094 144.734375 36.558594 C 118.714844 46.761719 96.582031 60.28125 74.546875 82.316406 C 52.410156 104.449219 38.890625 126.585938 28.707031 152.703125 C 18.894531 177.875 12.226562 206.78125 10.183594 249.085938 C 8.339844 291.414062 7.867188 304.953125 7.867188 412.835938 C 7.867188 520.625 8.339844 534.144531 10.183594 576.46875 C 12.226562 618.695312 18.894531 647.582031 28.707031 672.875 C 38.890625 698.890625 52.410156 721.125 74.546875 743.164062 C 96.582031 765.195312 118.714844 778.820312 144.734375 789 C 170.125 798.808594 198.914062 805.480469 241.140625 807.425781 C 283.46875 809.371094 297.085938 809.835938 404.871094 809.835938 C 512.753906 809.835938 526.273438 809.371094 568.601562 807.425781 C 610.929688 805.480469 639.734375 798.808594 665.003906 789 C 691.125 778.820312 713.257812 765.195312 735.296875 743.164062 C 757.429688 721.125 770.949219 698.890625 781.035156 672.875 C 790.941406 647.582031 797.613281 618.695312 799.558594 576.46875 C 801.503906 534.144531 801.96875 520.625 801.96875 412.835938 C 801.96875 304.953125 801.503906 291.414062 799.558594 249.085938 Z M 799.558594 249.085938 " fill-opacity="1" fill-rule="nonzero"/></g><path fill="#000000" d="M 404.871094 545.074219 C 331.816406 545.074219 272.535156 485.890625 272.535156 412.835938 C 272.535156 339.664062 331.816406 280.40625 404.871094 280.40625 C 477.945312 280.40625 537.304688 339.664062 537.304688 412.835938 C 537.304688 485.890625 477.945312 545.074219 404.871094 545.074219 Z M 404.871094 208.824219 C 292.257812 208.824219 201.050781 300.222656 201.050781 412.835938 C 201.050781 525.351562 292.257812 616.65625 404.871094 616.65625 C 517.484375 616.65625 608.785156 525.351562 608.785156 412.835938 C 608.785156 300.222656 517.484375 208.824219 404.871094 208.824219 Z M 404.871094 208.824219 " fill-opacity="1" fill-rule="nonzero"/></svg>